<svg width="110" height="26" viewBox="0 0 110 26" fill="none" xmlns="http://www.w3.org/2000/svg">
<path d="M105.13 20.1207C105.427 19.661 105.598 19.1567 105.642 18.608C105.687 18.0593 105.709 17.5179 105.709 16.984C105.279 17.5328 104.752 17.9184 104.129 18.1408C103.506 18.3633 102.832 18.4745 102.105 18.4745C101.26 18.4745 100.526 18.3485 99.9027 18.0963C99.2946 17.8442 98.8126 17.4586 98.4567 16.9396C98.1007 16.465 97.856 15.9088 97.7226 15.2711C97.5891 14.6186 97.5224 13.9141 97.5224 13.1578V6.573H100.659V12.7796C100.659 13.18 100.689 13.573 100.748 13.9586C100.822 14.3294 100.97 14.6408 101.193 14.8929C101.549 15.4268 102.194 15.6938 103.128 15.6938C103.573 15.6938 103.988 15.6048 104.374 15.4268C104.76 15.234 105.064 14.9374 105.286 14.537C105.479 14.1959 105.598 13.84 105.642 13.4692C105.687 13.0836 105.709 12.6684 105.709 12.2234V6.573H108.868V16.2054C108.868 16.7393 108.86 17.2881 108.845 17.8516C108.845 18.4004 108.801 18.9417 108.712 19.4756C108.638 20.0095 108.497 20.5285 108.289 21.0328C108.082 21.537 107.793 22.0042 107.422 22.4343C106.903 23.0275 106.22 23.5021 105.375 23.858C104.545 24.2139 103.544 24.3845 102.372 24.3697C101.512 24.3845 100.659 24.2658 99.8137 24.0137C98.9683 23.7764 98.1897 23.4279 97.4779 22.9682L98.4789 20.2987C98.8645 20.5805 99.3762 20.84 100.014 21.0773C100.666 21.3146 101.43 21.4332 102.305 21.4332C103.017 21.4332 103.595 21.3146 104.04 21.0773C104.5 20.8548 104.863 20.536 105.13 20.1207Z" fill="#AFAFAF"/>
<path d="M90.6621 15.6936C91.2553 15.6936 91.7225 15.5527 92.0636 15.2709C92.4195 14.9892 92.6346 14.6703 92.7087 14.3144H96.0011C95.8973 15.0707 95.6823 15.7085 95.356 16.2275C95.0297 16.7466 94.6219 17.1767 94.1325 17.5178C93.6579 17.8589 93.1166 18.1036 92.5085 18.2519C91.9005 18.4002 91.2702 18.4743 90.6176 18.4743C89.6388 18.4743 88.7861 18.3409 88.0594 18.0739C87.3475 17.7921 86.7543 17.3917 86.2797 16.8726C85.8051 16.3387 85.4418 15.701 85.1896 14.9595C84.9524 14.2031 84.8337 13.3578 84.8337 12.4235C84.8337 11.5188 84.9672 10.6883 85.2341 9.93195C85.5011 9.17559 85.8793 8.53046 86.3687 7.99656C86.8729 7.46266 87.4884 7.05482 88.2151 6.77304C88.9418 6.47643 89.7723 6.32812 90.7066 6.32812C91.3888 6.32812 92.0265 6.40969 92.6197 6.57283C93.2278 6.73597 93.7617 6.98809 94.2214 7.32919C94.696 7.67029 95.0816 8.10779 95.3782 8.64169C95.6897 9.16076 95.8973 9.78364 96.0011 10.5103H92.7087C92.6346 10.1544 92.4121 9.83555 92.0414 9.55377C91.6854 9.27199 91.2183 9.1311 90.6399 9.1311C90.1505 9.1311 89.7278 9.22008 89.3719 9.39805C89.0159 9.57602 88.7341 9.82072 88.5265 10.1322C88.3189 10.4436 88.1706 10.7995 88.0816 11.2C87.9926 11.6004 87.9481 12.0231 87.9481 12.468C87.9481 12.9426 88 13.3801 88.1038 13.7805C88.2077 14.1661 88.3634 14.5072 88.571 14.8038C88.7786 15.0856 89.053 15.308 89.3941 15.4712C89.75 15.6195 90.1727 15.6936 90.6621 15.6936Z" fill="#AFAFAF"/>
<path d="M75.2835 8.06325C76.2326 6.9213 77.4042 6.34291 78.7983 6.32808C79.5547 6.31324 80.2221 6.43931 80.8004 6.70626C81.3788 6.95837 81.846 7.30689 82.2019 7.75181C82.632 8.27088 82.9286 8.87893 83.0918 9.57597C83.2549 10.2582 83.3365 11.0219 83.3365 11.8673V18.2963H80.1776V12.112C80.1776 11.6967 80.1331 11.3037 80.0441 10.933C79.9699 10.5474 79.8365 10.2211 79.6437 9.95414C79.4509 9.67236 79.1913 9.46474 78.8651 9.33126C78.5536 9.19779 78.1977 9.13105 77.7973 9.13105C77.293 9.14588 76.8629 9.25711 76.507 9.46474C76.1659 9.67237 75.9064 9.93932 75.7284 10.2656C75.5504 10.577 75.4244 10.933 75.3502 11.3334C75.2909 11.719 75.2612 12.112 75.2612 12.5124V18.2963H72.1246V6.57278H75.1278L75.2835 8.06325Z" fill="#AFAFAF"/>
<path d="M65.0693 15.9161C65.5143 15.9161 65.8924 15.8493 66.2039 15.7159C66.5301 15.5676 66.7971 15.3303 67.0047 15.004H70.2971C70.134 15.6121 69.8819 16.1385 69.5408 16.5835C69.2145 17.0284 68.8141 17.3917 68.3395 17.6735C67.8797 17.9553 67.3681 18.1629 66.8045 18.2964C66.241 18.415 65.6477 18.4743 65.0248 18.4743C63.1265 18.4743 61.688 17.9404 60.7092 16.8726C59.7452 15.8048 59.2632 14.307 59.2632 12.379C59.2632 11.504 59.3892 10.6957 59.6414 9.95419C59.9083 9.21267 60.2791 8.57495 60.7536 8.04105C61.2282 7.49232 61.814 7.06965 62.5111 6.77304C63.2229 6.47643 64.0312 6.32812 64.9359 6.32812C65.9888 6.32812 66.9009 6.51351 67.6721 6.88427C68.4433 7.25504 69.0513 7.76669 69.4963 8.41923C69.956 9.05695 70.26 9.80589 70.4083 10.6661C70.5715 11.5262 70.5715 12.4457 70.4083 13.4245H62.3998C62.4592 14.1216 62.7039 14.7148 63.134 15.2042C63.564 15.6788 64.2092 15.9161 65.0693 15.9161ZM67.4941 11.2667C67.4941 10.8959 67.4274 10.5697 67.2939 10.2879C67.1604 9.99127 66.9825 9.75398 66.76 9.57602C66.5376 9.38322 66.2706 9.24233 65.9592 9.15335C65.6626 9.06436 65.3511 9.01987 65.0248 9.01987C64.2388 9.0347 63.6234 9.24974 63.1784 9.665C62.7484 10.0654 62.4962 10.5993 62.4221 11.2667H67.4941Z" fill="#AFAFAF"/>
<path d="M54.5326 17.0952C54.0877 17.5994 53.5538 17.9553 52.9309 18.163C52.3081 18.3706 51.6333 18.4744 50.9066 18.4744C50.1799 18.4744 49.468 18.3632 48.771 18.1407C48.0888 17.9034 47.4955 17.5252 46.9913 17.0062C46.4277 16.413 46.0347 15.7307 45.8123 14.9596C45.5898 14.1884 45.4786 13.3949 45.4786 12.5793C45.4786 10.6513 46.0125 9.1089 47.0803 7.95212C47.54 7.44788 48.1333 7.05487 48.86 6.77309C49.6015 6.49131 50.3949 6.35784 51.2403 6.37267C51.789 6.343 52.3822 6.4394 53.0199 6.66186C53.6576 6.88432 54.2064 7.25508 54.6661 7.77415L54.9998 6.57288H57.7138V17.5623C57.7138 18.0369 57.6841 18.5041 57.6248 18.9638C57.5803 19.4384 57.4987 19.8907 57.3801 20.3208C57.2615 20.7657 57.0835 21.1884 56.8462 21.5888C56.5793 22.0782 56.253 22.4935 55.8674 22.8346C55.4966 23.1757 55.0814 23.4575 54.6216 23.6799C54.1619 23.9172 53.6725 24.0878 53.1534 24.1916C52.6343 24.2954 52.1078 24.3473 51.5739 24.3473C50.8917 24.3473 50.2392 24.2657 49.6163 24.1026C48.9934 23.9543 48.4224 23.7022 47.9034 23.3462C47.3991 23.0051 46.9765 22.5676 46.6354 22.0337C46.3091 21.4998 46.0941 20.8621 45.9902 20.1206H49.3271C49.3864 20.4765 49.6237 20.7954 50.039 21.0772C50.4542 21.3589 50.9585 21.4998 51.5517 21.4998C52.1894 21.4998 52.7085 21.3738 53.1089 21.1216C53.5242 20.8695 53.8356 20.5358 54.0432 20.1206C54.2509 19.7053 54.3843 19.2308 54.4437 18.6969C54.503 18.163 54.5326 17.6291 54.5326 17.0952ZM51.6184 15.6937C52.1078 15.6937 52.5379 15.6047 52.9087 15.4267C53.2943 15.2488 53.6057 15.0115 53.843 14.7149C54.0803 14.4034 54.2583 14.0475 54.3769 13.6471C54.4956 13.2318 54.5549 12.7943 54.5549 12.3345C54.5549 11.4151 54.2953 10.6587 53.7763 10.0655C53.272 9.45742 52.5453 9.14598 51.5962 9.13115C51.1068 9.13115 50.6693 9.22013 50.2837 9.3981C49.9129 9.57607 49.6015 9.81335 49.3494 10.11C49.1121 10.4066 48.9341 10.7551 48.8155 11.1555C48.6968 11.5559 48.6375 11.986 48.6375 12.4458C48.6375 12.9352 48.6968 13.3801 48.8155 13.7805C48.9489 14.1661 49.1417 14.5072 49.3939 14.8038C49.646 15.0856 49.9574 15.3081 50.3282 15.4712C50.6989 15.6195 51.129 15.6937 51.6184 15.6937Z" fill="#AFAFAF"/>
<path d="M41.0018 16.8504C40.5569 17.4436 40.0156 17.8663 39.3778 18.1184C38.7401 18.3705 37.9986 18.4892 37.1533 18.4743C36.0706 18.4447 35.166 18.1407 34.4393 17.5623C34.0537 17.236 33.7496 16.8504 33.5272 16.4055C33.3196 15.9457 33.2157 15.4044 33.2157 14.7815C33.2306 14.1438 33.3715 13.5803 33.6384 13.0909C33.9202 12.5866 34.3429 12.1714 34.9064 11.8451C35.381 11.593 35.9149 11.415 36.5081 11.3112C37.1162 11.2074 37.7761 11.1555 38.488 11.1555H40.8906C40.935 10.4288 40.7645 9.88746 40.3789 9.53153C40.0081 9.16076 39.4817 8.96796 38.7994 8.95313C38.577 8.95313 38.3471 8.96796 38.1098 8.99763C37.8725 9.02729 37.6501 9.08661 37.4425 9.17559C37.2497 9.26458 37.0791 9.39063 36.9308 9.55377C36.7973 9.70208 36.7083 9.88746 36.6638 10.1099H33.4382C33.5124 9.39805 33.7052 8.80483 34.0166 8.33025C34.3429 7.84084 34.7507 7.44783 35.2401 7.15122C35.7295 6.85461 36.2708 6.64698 36.8641 6.52834C37.4721 6.39486 38.095 6.32812 38.7327 6.32812C39.0886 6.32812 39.452 6.35037 39.8228 6.39486C40.1935 6.42452 40.5569 6.49868 40.9128 6.61732C41.2687 6.72114 41.6024 6.86944 41.9139 7.06224C42.2401 7.2402 42.5442 7.47749 42.8259 7.7741C43.3302 8.3525 43.6416 9.01987 43.7603 9.77623C43.8937 10.5178 43.9531 11.2445 43.9382 11.9563V18.2964H41.0685L41.0018 16.8504ZM40.8906 13.1131H38.5992C38.3768 13.1131 38.1247 13.1353 37.8429 13.1798C37.5611 13.2243 37.3164 13.3059 37.1088 13.4245C36.9011 13.5432 36.7232 13.6989 36.5749 13.8917C36.4414 14.0845 36.3747 14.3218 36.3747 14.6036C36.3747 14.8409 36.4191 15.0485 36.5081 15.2265C36.6119 15.4044 36.738 15.5527 36.8863 15.6714C37.0494 15.79 37.2422 15.8864 37.4647 15.9606C37.6872 16.0199 37.9096 16.0496 38.1321 16.0496C38.5622 16.0644 38.9626 15.9902 39.3333 15.8271C39.7189 15.664 40.0526 15.4341 40.3344 15.1375C40.5124 14.9002 40.6459 14.6332 40.7348 14.3366C40.8387 14.0252 40.8906 13.6173 40.8906 13.1131Z" fill="#AFAFAF"/>
<path fill-rule="evenodd" clip-rule="evenodd" d="M24.6974 13.34C24.5717 15.5362 23.8616 17.6638 22.6348 19.4999C21.2768 21.5323 19.3466 23.1164 17.0883 24.0518C14.83 24.9872 12.3451 25.232 9.94771 24.7551C7.55034 24.2782 5.34821 23.1012 3.61981 21.3728C1.8914 19.6443 0.714337 17.4422 0.237471 15.0449C-0.239396 12.6475 0.00534915 10.1625 0.940757 7.90427C1.87616 5.64599 3.46022 3.71581 5.49262 2.35781C7.32878 1.13092 9.45638 0.420845 11.6526 0.295166V6.49485C10.6804 6.60669 9.74501 6.94835 8.9257 7.49579C7.90951 8.17479 7.11748 9.13988 6.64977 10.269C6.18207 11.3982 6.0597 12.6406 6.29813 13.8393C6.53656 15.038 7.1251 16.1391 7.9893 17.0033C8.8535 17.8675 9.95457 18.456 11.1533 18.6944C12.3519 18.9329 13.5944 18.8105 14.7235 18.3428C15.8527 17.8751 16.8178 17.0831 17.4968 16.0669C18.0442 15.2476 18.3859 14.3122 18.4977 13.34H24.6974Z" fill="#AFAFAF"/>
<path fill-rule="evenodd" clip-rule="evenodd" d="M18.5349 0.274902H13.4794V6.45429H18.5349V11.5099H24.7143L24.7143 6.45429H24.7147V0.274902H23.5839H18.5349Z" fill="#AFAFAF"/>
</svg>
