<svg width="154" height="34" viewBox="0 0 154 34" fill="none" xmlns="http://www.w3.org/2000/svg">
<path d="M143.849 12.1449H146.603L146.71 13.5863C147.069 13.0413 147.514 12.6254 148.044 12.3385C148.589 12.0373 149.192 11.8867 149.851 11.8867C152.533 11.8867 153.867 13.5289 153.853 16.8134V17.3943H153.874V22.9018H150.97V17.3943H150.949C150.949 16.3616 150.769 15.6445 150.411 15.2429C150.067 14.8269 149.565 14.619 148.905 14.619C148.202 14.619 147.664 14.8485 147.291 15.3074C146.933 15.752 146.753 16.3975 146.753 17.2437V22.9018H143.849V12.1449Z" fill="#AFAFAF"/>
<path d="M136.404 23.16C135.314 23.16 134.339 22.9233 133.479 22.45C132.618 21.9624 131.944 21.2954 131.456 20.4492C130.983 19.5887 130.746 18.6134 130.746 17.5233C130.746 16.4333 130.983 15.4652 131.456 14.619C131.944 13.7584 132.611 13.0915 133.457 12.6182C134.303 12.1305 135.271 11.8867 136.361 11.8867C137.451 11.8867 138.42 12.1305 139.266 12.6182C140.126 13.0915 140.793 13.7584 141.267 14.619C141.754 15.4652 141.998 16.4333 141.998 17.5233C141.998 18.6134 141.761 19.5887 141.288 20.4492C140.815 21.2954 140.148 21.9624 139.287 22.45C138.441 22.9233 137.48 23.16 136.404 23.16ZM133.737 17.5233C133.737 18.3982 133.981 19.1154 134.468 19.6747C134.97 20.2198 135.616 20.4923 136.404 20.4923C137.179 20.4923 137.81 20.2198 138.298 19.6747C138.785 19.1154 139.029 18.3982 139.029 17.5233C139.029 16.6485 138.778 15.9385 138.276 15.3935C137.789 14.8341 137.15 14.5544 136.361 14.5544C135.601 14.5544 134.97 14.8341 134.468 15.3935C133.981 15.9385 133.737 16.6485 133.737 17.5233Z" fill="#AFAFAF"/>
<path d="M125.827 12.1448H128.731V22.9018H125.827V12.1448ZM127.29 10.4452C126.831 10.4452 126.436 10.2803 126.106 9.95042C125.777 9.62054 125.612 9.2333 125.612 8.78868C125.612 8.32971 125.777 7.93529 126.106 7.60541C126.451 7.27554 126.845 7.1106 127.29 7.1106C127.734 7.1106 128.122 7.27554 128.451 7.60541C128.781 7.93529 128.946 8.32971 128.946 8.78868C128.946 9.2333 128.781 9.62054 128.451 9.95042C128.136 10.2803 127.749 10.4452 127.29 10.4452Z" fill="#AFAFAF"/>
<path d="M121.432 23.1601C120.241 23.1601 119.33 22.866 118.699 22.278C118.083 21.69 117.774 20.8437 117.774 19.7394V14.5976H116.053V12.145H117.774V8.78882H120.679V12.145H123.346V14.5976H120.679V19.094C120.679 19.5673 120.772 19.9187 120.958 20.1481C121.159 20.3633 121.46 20.4708 121.862 20.4708C122.149 20.4708 122.471 20.3418 122.83 20.0836L123.863 22.2565C123.504 22.529 123.11 22.7441 122.679 22.9019C122.249 23.074 121.833 23.1601 121.432 23.1601Z" fill="#AFAFAF"/>
<path d="M111.918 21.6755C111.316 22.6652 110.326 23.16 108.95 23.16C107.659 23.16 106.655 22.8731 105.938 22.2994C105.235 21.7257 104.883 20.9154 104.883 19.8684C104.883 18.7353 105.264 17.8747 106.024 17.2867C106.784 16.6986 107.86 16.4046 109.251 16.4046H111.811C111.61 15.0708 110.958 14.4038 109.853 14.4038C108.907 14.4038 108.189 14.8054 107.702 15.6086L105.142 14.7265C105.486 13.9234 106.045 13.2493 106.82 12.7042C107.609 12.1592 108.62 11.8867 109.853 11.8867C111.46 11.8867 112.679 12.3385 113.511 13.2421C114.342 14.1313 114.744 15.3648 114.715 16.9425L114.672 22.9018H111.962L111.918 21.6755ZM107.852 19.7823C107.852 20.0835 107.996 20.3273 108.283 20.5138C108.57 20.6859 108.964 20.7719 109.466 20.7719C109.911 20.7719 110.312 20.6644 110.671 20.4492C111.044 20.2341 111.338 19.9544 111.553 19.6102C111.768 19.266 111.875 18.9074 111.875 18.5345H110.283C109.409 18.5345 108.785 18.6421 108.412 18.8572C108.039 19.058 107.852 19.3664 107.852 19.7823Z" fill="#AFAFAF"/>
<path d="M98.9264 23.16C97.8077 23.16 96.8109 22.9233 95.936 22.45C95.0611 21.9624 94.3726 21.2954 93.8706 20.4492C93.383 19.5887 93.1392 18.6134 93.1392 17.5233C93.1392 16.4333 93.383 15.4652 93.8706 14.619C94.3583 13.7584 95.0396 13.0915 95.9144 12.6182C96.7893 12.1305 97.779 11.8867 98.8834 11.8867C99.9877 11.8867 100.977 12.1592 101.852 12.7042C102.742 13.2493 103.387 14.0166 103.789 15.0062L101.056 15.9743C100.855 15.5584 100.547 15.2285 100.131 14.9847C99.7152 14.7409 99.2563 14.619 98.7543 14.619C97.9798 14.619 97.3487 14.8915 96.8611 15.4365C96.3734 15.9672 96.1296 16.6628 96.1296 17.5233C96.1296 18.3696 96.3734 19.0652 96.8611 19.6102C97.363 20.1552 98.0085 20.4277 98.7973 20.4277C99.2993 20.4277 99.7583 20.2986 100.174 20.0405C100.59 19.768 100.898 19.4094 101.099 18.9648L103.853 19.9329C103.437 20.9512 102.792 21.7472 101.917 22.3209C101.042 22.8803 100.045 23.16 98.9264 23.16Z" fill="#AFAFAF"/>
<path d="M88.2196 12.1448H91.1239V22.9018H88.2196V12.1448ZM89.6825 10.4452C89.2235 10.4452 88.8291 10.2803 88.4992 9.95042C88.1694 9.62054 88.0044 9.2333 88.0044 8.78868C88.0044 8.32971 88.1694 7.93529 88.4992 7.60541C88.8435 7.27554 89.2379 7.1106 89.6825 7.1106C90.1271 7.1106 90.5144 7.27554 90.8443 7.60541C91.1741 7.93529 91.3391 8.32971 91.3391 8.78868C91.3391 9.2333 91.1741 9.62054 90.8443 9.95042C90.5287 10.2803 90.1415 10.4452 89.6825 10.4452Z" fill="#AFAFAF"/>
<path d="M82.711 7.41187H85.6154V22.9018H82.711V7.41187Z" fill="#AFAFAF"/>
<path d="M69.8976 12.1449H72.6514L72.759 13.6293C73.1175 13.07 73.5693 12.6397 74.1143 12.3385C74.6737 12.0373 75.312 11.8867 76.0291 11.8867C77.0044 11.8867 77.8578 12.1162 78.5892 12.5752C79.335 13.0341 79.9016 13.6867 80.2888 14.5329C80.6904 15.3791 80.8912 16.3759 80.8912 17.5233C80.8912 18.6564 80.6904 19.6532 80.2888 20.5138C79.9016 21.36 79.335 22.0126 78.5892 22.4715C77.8578 22.9305 77.0044 23.16 76.0291 23.16C75.3263 23.16 74.7024 23.0166 74.1574 22.7297C73.6124 22.4285 73.1606 22.0054 72.802 21.4604V27.2046H69.8976V12.1449ZM72.802 17.5233C72.802 18.3982 73.0315 19.1154 73.4904 19.6747C73.9637 20.2198 74.5661 20.4923 75.2976 20.4923C76.0434 20.4923 76.6602 20.2126 77.1478 19.6532C77.6354 19.0939 77.8793 18.3839 77.8793 17.5233C77.8793 16.6628 77.6354 15.96 77.1478 15.415C76.6745 14.8556 76.0649 14.576 75.3191 14.576C74.5733 14.576 73.9637 14.8485 73.4904 15.3935C73.0315 15.9385 72.802 16.6485 72.802 17.5233Z" fill="#AFAFAF"/>
<path d="M56.9767 12.1449H59.7304L59.838 13.6293C60.1966 13.07 60.6484 12.6397 61.1934 12.3385C61.7527 12.0373 62.391 11.8867 63.1081 11.8867C64.0834 11.8867 64.9368 12.1162 65.6682 12.5752C66.4141 13.0341 66.9806 13.6867 67.3678 14.5329C67.7694 15.3791 67.9702 16.3759 67.9702 17.5233C67.9702 18.6564 67.7694 19.6532 67.3678 20.5138C66.9806 21.36 66.4141 22.0126 65.6682 22.4715C64.9368 22.9305 64.0834 23.16 63.1081 23.16C62.4053 23.16 61.7814 23.0166 61.2364 22.7297C60.6914 22.4285 60.2396 22.0054 59.881 21.4604V27.2046H56.9767V12.1449ZM59.881 17.5233C59.881 18.3982 60.1105 19.1154 60.5695 19.6747C61.0428 20.2198 61.6452 20.4923 62.3766 20.4923C63.1224 20.4923 63.7392 20.2126 64.2268 19.6532C64.7145 19.0939 64.9583 18.3839 64.9583 17.5233C64.9583 16.6628 64.7145 15.96 64.2268 15.415C63.7535 14.8556 63.144 14.576 62.3981 14.576C61.6523 14.576 61.0428 14.8485 60.5695 15.3935C60.1105 15.9385 59.881 16.6485 59.881 17.5233Z" fill="#AFAFAF"/>
<path d="M51.831 21.6755C51.2286 22.6652 50.239 23.16 48.8621 23.16C47.5713 23.16 46.5673 22.8731 45.8502 22.2994C45.1474 21.7257 44.796 20.9154 44.796 19.8684C44.796 18.7353 45.1761 17.8747 45.9362 17.2867C46.6964 16.6986 47.7721 16.4046 49.1633 16.4046H51.7235C51.5227 15.0708 50.8701 14.4038 49.7657 14.4038C48.8191 14.4038 48.102 14.8054 47.6143 15.6086L45.0542 14.7265C45.3984 13.9234 45.9578 13.2493 46.7323 12.7042C47.5211 12.1592 48.5322 11.8867 49.7657 11.8867C51.3721 11.8867 52.5912 12.3385 53.4231 13.2421C54.2549 14.1313 54.6565 15.3648 54.6278 16.9425L54.5848 22.9018H51.8741L51.831 21.6755ZM47.7649 19.7823C47.7649 20.0835 47.9083 20.3273 48.1952 20.5138C48.482 20.6859 48.8765 20.7719 49.3785 20.7719C49.8231 20.7719 50.2247 20.6644 50.5832 20.4492C50.9561 20.2341 51.2502 19.9544 51.4653 19.6102C51.6804 19.266 51.788 18.9074 51.788 18.5345H50.196C49.3211 18.5345 48.6972 18.6421 48.3243 18.8572C47.9514 19.058 47.7649 19.3664 47.7649 19.7823Z" fill="#AFAFAF"/>
<path fill-rule="evenodd" clip-rule="evenodd" d="M15.7571 27.2766H8.80764C4.71604 27.2766 1.39915 23.9597 1.39915 19.8681C1.39915 16.2597 4.14927 13.2936 7.66787 12.9515C7.91597 9.33877 10.9252 6.48511 14.6009 6.48511H14.8303C16.8076 6.48511 18.5982 7.28448 19.8966 8.57769C21.6372 7.26405 23.8041 6.48511 26.1529 6.48511H26.6748C32.128 6.48511 36.5486 10.9058 36.5486 16.3589C36.5486 22.3886 31.6606 27.2766 25.6309 27.2766H15.7571V27.2766Z" fill="#AFAFAF"/>
</svg>
