<svg width="52" height="52" viewBox="0 0 52 52" fill="none" xmlns="http://www.w3.org/2000/svg">
<g clip-path="url(#clip0_5449_17098)">
<path fill-rule="evenodd" clip-rule="evenodd" d="M44.1449 15.044C48.1255 15.044 51.3524 11.8171 51.3524 7.83658C51.3524 3.85603 48.1255 0.62915 44.1449 0.62915C40.1644 0.62915 36.9375 3.85603 36.9375 7.83658C36.9375 11.8171 40.1644 15.044 44.1449 15.044Z" fill="#8055FA"/>
<path fill-rule="evenodd" clip-rule="evenodd" d="M44.1449 33.1464C48.1255 33.1464 51.3524 29.9196 51.3524 25.9391C51.3524 21.9587 48.1255 18.7319 44.1449 18.7319C40.1644 18.7319 36.9375 21.9587 36.9375 25.9391C36.9375 29.9196 40.1644 33.1464 44.1449 33.1464Z" fill="#7550FB"/>
<path fill-rule="evenodd" clip-rule="evenodd" d="M44.1449 51.92C48.1255 51.92 51.3524 48.6931 51.3524 44.7126C51.3524 40.732 48.1255 37.5051 44.1449 37.5051C40.1644 37.5051 36.9375 40.732 36.9375 44.7126C36.9375 48.6931 40.1644 51.92 44.1449 51.92Z" fill="#6A4AFC"/>
<path fill-rule="evenodd" clip-rule="evenodd" d="M25.3713 33.1464C29.3517 33.1464 32.5785 29.9196 32.5785 25.9391C32.5785 21.9587 29.3517 18.7319 25.3713 18.7319C21.3908 18.7319 18.1641 21.9587 18.1641 25.9391C18.1641 29.9196 21.3908 33.1464 25.3713 33.1464Z" fill="#6045FD"/>
<path fill-rule="evenodd" clip-rule="evenodd" d="M25.3713 51.92C29.3517 51.92 32.5785 48.6931 32.5785 44.7126C32.5785 40.732 29.3517 37.5051 25.3713 37.5051C21.3908 37.5051 18.1641 40.732 18.1641 44.7126C18.1641 48.6931 21.3908 51.92 25.3713 51.92Z" fill="#553FFE"/>
<path fill-rule="evenodd" clip-rule="evenodd" d="M7.26993 51.92C11.2505 51.92 14.4774 48.6931 14.4774 44.7126C14.4774 40.732 11.2505 37.5051 7.26993 37.5051C3.28938 37.5051 0.0625 40.732 0.0625 44.7126C0.0625 48.6931 3.28938 51.92 7.26993 51.92Z" fill="#4A3AFF"/>
</g>
<defs>
<clipPath id="clip0_5449_17098">
<rect width="52" height="52" fill="white"/>
</clipPath>
</defs>
</svg>
