<svg width="131" height="29" viewBox="0 0 131 29" fill="none" xmlns="http://www.w3.org/2000/svg">
<path d="M129.308 14.0436L126.227 14.2332C126.174 13.9699 126.061 13.7329 125.887 13.5223C125.714 13.3063 125.484 13.1352 125.2 13.0088C124.921 12.8771 124.587 12.8113 124.197 12.8113C123.675 12.8113 123.236 12.9219 122.878 13.1431C122.519 13.359 122.34 13.6487 122.34 14.012C122.34 14.3017 122.456 14.5466 122.688 14.7467C122.92 14.9469 123.317 15.1075 123.881 15.2286L126.077 15.671C127.257 15.9133 128.136 16.303 128.715 16.8402C129.295 17.3774 129.584 18.0831 129.584 18.9573C129.584 19.7526 129.35 20.4504 128.881 21.0508C128.418 21.6511 127.781 22.1199 126.97 22.4569C126.164 22.7887 125.234 22.9546 124.181 22.9546C122.575 22.9546 121.295 22.6202 120.342 21.9513C119.394 21.2772 118.838 20.3608 118.675 19.2022L121.985 19.0284C122.085 19.5182 122.327 19.8921 122.712 20.1502C123.096 20.403 123.589 20.5294 124.189 20.5294C124.779 20.5294 125.253 20.4161 125.611 20.1897C125.974 19.958 126.159 19.6604 126.164 19.297C126.159 18.9915 126.03 18.7414 125.777 18.5465C125.524 18.3464 125.134 18.1937 124.608 18.0883L122.506 17.6696C121.321 17.4327 120.439 17.0219 119.86 16.4373C119.286 15.8527 118.999 15.1075 118.999 14.2016C118.999 13.4222 119.209 12.7507 119.631 12.1872C120.057 11.6237 120.655 11.1892 121.424 10.8837C122.198 10.5783 123.104 10.4255 124.142 10.4255C125.674 10.4255 126.88 10.7494 127.76 11.3972C128.644 12.045 129.161 12.9271 129.308 14.0436Z" fill="#AFAFAF"/>
<path d="M116.816 14.0436L113.735 14.2332C113.683 13.9699 113.57 13.7329 113.396 13.5223C113.222 13.3063 112.993 13.1352 112.709 13.0088C112.429 12.8771 112.095 12.8113 111.705 12.8113C111.184 12.8113 110.744 12.9219 110.386 13.1431C110.028 13.359 109.849 13.6487 109.849 14.012C109.849 14.3017 109.965 14.5466 110.196 14.7467C110.428 14.9469 110.826 15.1075 111.389 15.2286L113.585 15.671C114.765 15.9133 115.645 16.303 116.224 16.8402C116.803 17.3774 117.093 18.0831 117.093 18.9573C117.093 19.7526 116.859 20.4504 116.39 21.0508C115.926 21.6511 115.289 22.1199 114.478 22.4569C113.672 22.7887 112.743 22.9546 111.689 22.9546C110.083 22.9546 108.803 22.6202 107.85 21.9513C106.902 21.2772 106.347 20.3608 106.183 19.2022L109.493 19.0284C109.593 19.5182 109.836 19.8921 110.22 20.1502C110.605 20.403 111.097 20.5294 111.697 20.5294C112.287 20.5294 112.761 20.4161 113.119 20.1897C113.483 19.958 113.667 19.6604 113.672 19.297C113.667 18.9915 113.538 18.7414 113.285 18.5465C113.032 18.3464 112.643 18.1937 112.116 18.0883L110.015 17.6696C108.83 17.4327 107.948 17.0219 107.368 16.4373C106.794 15.8527 106.507 15.1075 106.507 14.2016C106.507 13.4222 106.718 12.7507 107.139 12.1872C107.566 11.6237 108.164 11.1892 108.932 10.8837C109.707 10.5783 110.612 10.4255 111.65 10.4255C113.183 10.4255 114.389 10.7494 115.268 11.3972C116.153 12.045 116.669 12.9271 116.816 14.0436Z" fill="#AFAFAF"/>
<path d="M98.955 22.9546C97.7068 22.9546 96.6324 22.7018 95.7319 22.1962C94.8365 21.6854 94.1466 20.9639 93.6621 20.0317C93.1776 19.0942 92.9353 17.9856 92.9353 16.7059C92.9353 15.4577 93.1776 14.3623 93.6621 13.4196C94.1466 12.4769 94.8286 11.7422 95.7082 11.2155C96.5929 10.6889 97.6304 10.4255 98.8207 10.4255C99.6212 10.4255 100.366 10.5546 101.056 10.8126C101.752 11.0654 102.357 11.4472 102.873 11.9581C103.395 12.469 103.8 13.1115 104.09 13.8856C104.38 14.6546 104.524 15.5551 104.524 16.5874V17.5117H94.2783V15.4261H101.357C101.357 14.9416 101.251 14.5124 101.041 14.1384C100.83 13.7645 100.538 13.4722 100.164 13.2616C99.795 13.0456 99.3658 12.9377 98.876 12.9377C98.3651 12.9377 97.9122 13.0562 97.5172 13.2932C97.1275 13.5249 96.822 13.8382 96.6008 14.2332C96.3796 14.623 96.2664 15.0575 96.2611 15.5367V17.5196C96.2611 18.1199 96.3717 18.6387 96.5929 19.0758C96.8194 19.5129 97.138 19.85 97.5488 20.087C97.9596 20.324 98.4468 20.4425 99.0103 20.4425C99.3842 20.4425 99.7265 20.3898 100.037 20.2845C100.348 20.1792 100.614 20.0212 100.835 19.8105C101.056 19.5998 101.225 19.3418 101.341 19.0363L104.453 19.2417C104.295 19.9896 103.971 20.6426 103.482 21.2009C102.997 21.7538 102.37 22.1857 101.601 22.4964C100.838 22.8019 99.9556 22.9546 98.955 22.9546Z" fill="#AFAFAF"/>
<path d="M82.952 15.7026V22.7176H79.5866V10.5835H82.794V12.7244H82.9362C83.2047 12.0187 83.655 11.4604 84.287 11.0496C84.919 10.6336 85.6853 10.4255 86.5859 10.4255C87.4285 10.4255 88.1632 10.6099 88.7899 10.9785C89.4166 11.3472 89.9038 11.8738 90.2514 12.5585C90.599 13.2379 90.7728 14.0489 90.7728 14.9916V22.7176H87.4074V15.592C87.4127 14.8494 87.2231 14.2701 86.8387 13.854C86.4542 13.4327 85.9249 13.2221 85.2508 13.2221C84.7979 13.2221 84.3976 13.3195 84.05 13.5144C83.7077 13.7092 83.4391 13.9936 83.2442 14.3675C83.0547 14.7362 82.9572 15.1812 82.952 15.7026Z" fill="#AFAFAF"/>
<path d="M73.5255 22.7176V10.5835H76.8908V22.7176H73.5255ZM75.2161 9.01931C74.7158 9.01931 74.2866 8.85342 73.9284 8.52163C73.5756 8.18457 73.3991 7.78168 73.3991 7.31296C73.3991 6.8495 73.5756 6.45188 73.9284 6.12009C74.2866 5.78303 74.7158 5.6145 75.2161 5.6145C75.7164 5.6145 76.143 5.78303 76.4959 6.12009C76.854 6.45188 77.033 6.8495 77.033 7.31296C77.033 7.78168 76.854 8.18457 76.4959 8.52163C76.143 8.85342 75.7164 9.01931 75.2161 9.01931Z" fill="#AFAFAF"/>
<path d="M71.1299 14.0436L68.049 14.2332C67.9963 13.9699 67.8831 13.7329 67.7093 13.5223C67.5355 13.3063 67.3064 13.1352 67.022 13.0088C66.7429 12.8771 66.4085 12.8113 66.0188 12.8113C65.4974 12.8113 65.0576 12.9219 64.6995 13.1431C64.3414 13.359 64.1623 13.6487 64.1623 14.012C64.1623 14.3017 64.2782 14.5466 64.5099 14.7467C64.7416 14.9469 65.1392 15.1075 65.7028 15.2286L67.8989 15.671C69.0786 15.9133 69.9581 16.303 70.5374 16.8402C71.1168 17.3774 71.4064 18.0831 71.4064 18.9573C71.4064 19.7526 71.1721 20.4504 70.7033 21.0508C70.2399 21.6511 69.6026 22.1199 68.7916 22.4569C67.9858 22.7887 67.0563 22.9546 66.003 22.9546C64.3967 22.9546 63.1169 22.6202 62.1637 21.9513C61.2157 21.2772 60.6601 20.3608 60.4968 19.2022L63.8068 19.0284C63.9069 19.5182 64.1491 19.8921 64.5336 20.1502C64.918 20.403 65.4105 20.5294 66.0109 20.5294C66.6007 20.5294 67.0747 20.4161 67.4328 20.1897C67.7962 19.958 67.9805 19.6604 67.9858 19.297C67.9805 18.9915 67.8515 18.7414 67.5987 18.5465C67.3459 18.3464 66.9562 18.1937 66.4295 18.0883L64.3282 17.6696C63.1432 17.4327 62.2611 17.0219 61.6818 16.4373C61.1077 15.8527 60.8207 15.1075 60.8207 14.2016C60.8207 13.4222 61.0313 12.7507 61.4527 12.1872C61.8793 11.6237 62.477 11.1892 63.2459 10.8837C64.0201 10.5783 64.9259 10.4255 65.9635 10.4255C67.496 10.4255 68.7021 10.7494 69.5816 11.3972C70.4663 12.045 70.9825 12.9271 71.1299 14.0436Z" fill="#AFAFAF"/>
<path d="M54.9768 17.5511V10.5835H58.3421V22.7176H55.1111V20.5135H54.9847C54.7109 21.2245 54.2553 21.7959 53.6181 22.2278C52.9861 22.6597 52.2145 22.8756 51.3034 22.8756C50.4924 22.8756 49.7788 22.6913 49.1626 22.3226C48.5464 21.9539 48.0645 21.4299 47.7169 20.7505C47.3746 20.0712 47.2008 19.2575 47.1955 18.3095V10.5835H50.5608V17.7091C50.5661 18.4254 50.7583 18.9915 51.1375 19.4076C51.5167 19.8236 52.0249 20.0317 52.6622 20.0317C53.0677 20.0317 53.4469 19.9395 53.7998 19.7552C54.1526 19.5656 54.437 19.2864 54.6529 18.9178C54.8741 18.5491 54.9821 18.0936 54.9768 17.5511Z" fill="#AFAFAF"/>
<path d="M33.1161 22.7176V6.53882H36.4814V12.6217H36.5841C36.7316 12.2951 36.9449 11.9633 37.224 11.6263C37.5084 11.284 37.8771 10.9996 38.33 10.7731C38.7882 10.5414 39.357 10.4255 40.0363 10.4255C40.9211 10.4255 41.7374 10.6572 42.4853 11.1207C43.2331 11.5789 43.8309 12.2714 44.2785 13.1983C44.7262 14.12 44.95 15.276 44.95 16.6664C44.95 18.0199 44.7315 19.1627 44.2943 20.0949C43.8625 21.0218 43.2726 21.7249 42.5248 22.2041C41.7822 22.6781 40.9501 22.9151 40.0284 22.9151C39.3754 22.9151 38.8198 22.8071 38.3616 22.5912C37.9087 22.3753 37.5374 22.1041 37.2477 21.7775C36.9581 21.4457 36.7369 21.1113 36.5841 20.7743H36.434V22.7176H33.1161ZM36.4103 16.6506C36.4103 17.3721 36.5104 18.0014 36.7105 18.5386C36.9107 19.0758 37.2003 19.4945 37.5795 19.7947C37.9587 20.0896 38.4195 20.2371 38.962 20.2371C39.5097 20.2371 39.9731 20.087 40.3523 19.7868C40.7315 19.4813 41.0185 19.06 41.2134 18.5228C41.4135 17.9804 41.5136 17.3563 41.5136 16.6506C41.5136 15.9501 41.4162 15.3339 41.2213 14.802C41.0264 14.2701 40.7394 13.854 40.3602 13.5538C39.981 13.2536 39.515 13.1035 38.962 13.1035C38.4142 13.1035 37.9508 13.2484 37.5716 13.538C37.1977 13.8277 36.9107 14.2385 36.7105 14.7704C36.5104 15.3023 36.4103 15.929 36.4103 16.6506Z" fill="#AFAFAF"/>
<path fill-rule="evenodd" clip-rule="evenodd" d="M13.8992 10.5364L17.5396 14.1768L14.0734 17.6429L10.4331 14.0026L13.8992 10.5364ZM10.1668 6.80403L7.88449 4.52167C7.7543 4.39149 7.7543 4.18041 7.88449 4.05022L11.1454 0.789292C11.2756 0.659103 11.4867 0.659103 11.6169 0.789292L22.7649 11.9373C24.0017 13.1741 24.0017 15.1794 22.7649 16.4162L17.8058 21.3753L20.0881 23.6577C20.2183 23.7879 20.2183 23.9989 20.0881 24.1291L16.8272 27.3901C16.697 27.5202 16.4859 27.5202 16.3558 27.3901L5.20772 16.242C3.97092 15.0052 3.97092 13 5.20772 11.7632L10.1668 6.80403Z" fill="#AFAFAF"/>
</svg>
