<svg width="138" height="27" viewBox="0 0 138 27" fill="none" xmlns="http://www.w3.org/2000/svg">
<path d="M132.65 9.0498H135.89L131.617 20.7907C130.396 24.172 128.4 25.6514 125.417 25.487V22.6692C127.085 22.6927 127.93 21.9882 128.494 20.4149L123.68 9.0498H126.991L130.043 16.9397L132.65 9.0498Z" fill="#AFAFAF"/>
<path d="M118.223 8.72119C120.712 8.72119 122.661 10.4588 122.661 13.5819V20.7908H119.631V13.9576C119.631 12.3609 118.669 11.539 117.307 11.539C115.827 11.539 114.724 12.4078 114.724 14.4507V20.7908H111.695V9.04994H114.724V10.3649C115.428 9.30823 116.649 8.72119 118.223 8.72119Z" fill="#AFAFAF"/>
<path d="M105.919 9.04994H108.948V20.7908H105.919V19.4054C105.073 20.462 103.805 21.1195 102.091 21.1195C98.9681 21.1195 96.3851 18.4191 96.3851 14.9204C96.3851 11.4216 98.9681 8.72119 102.091 8.72119C103.805 8.72119 105.073 9.37868 105.919 10.4354V9.04994ZM102.655 18.2313C104.533 18.2313 105.919 16.8928 105.919 14.9204C105.919 12.9479 104.533 11.6094 102.655 11.6094C100.8 11.6094 99.4143 12.9479 99.4143 14.9204C99.4143 16.8928 100.8 18.2313 102.655 18.2313Z" fill="#AFAFAF"/>
<path d="M89.1298 8.72119C92.2764 8.72119 94.8593 11.4216 94.8593 14.9204C94.8593 18.4191 92.2764 21.1195 89.1298 21.1195C87.4156 21.1195 86.1711 20.4855 85.3258 19.4054V25.4871H82.2966V9.04994H85.3258V10.4354C86.1711 9.3552 87.4156 8.72119 89.1298 8.72119ZM88.5662 18.2313C90.4448 18.2313 91.8302 16.8928 91.8302 14.9204C91.8302 12.9479 90.4448 11.6094 88.5662 11.6094C86.7112 11.6094 85.3258 12.9479 85.3258 14.9204C85.3258 16.8928 86.7112 18.2313 88.5662 18.2313Z" fill="#AFAFAF"/>
<path d="M75.2859 8.72119C77.9628 8.72119 79.7239 10.6232 79.7239 13.5584V20.7908H76.6948V13.7698C76.6948 12.3843 75.9903 11.539 74.7223 11.539C73.3838 11.539 72.5385 12.4313 72.5385 14.1924V20.7908H69.5094V13.7698C69.5094 12.3843 68.8049 11.539 67.5369 11.539C66.2454 11.539 65.3296 12.4313 65.3296 14.1924V20.7908H62.3005V9.04994H65.3296V10.2945C65.9871 9.30823 67.0907 8.72119 68.5936 8.72119C70.0494 8.72119 71.1296 9.33171 71.7871 10.4119C72.515 9.3552 73.6891 8.72119 75.2859 8.72119Z" fill="#AFAFAF"/>
<path d="M53.9469 21.1195C50.495 21.1195 47.7477 18.4191 47.7477 14.9204C47.7477 11.4216 50.495 8.72119 53.9469 8.72119C57.3987 8.72119 60.1695 11.4216 60.1695 14.9204C60.1695 18.4191 57.3987 21.1195 53.9469 21.1195ZM53.9469 18.1608C55.7549 18.1608 57.1404 16.8224 57.1404 14.9204C57.1404 13.0183 55.7549 11.6799 53.9469 11.6799C52.1622 11.6799 50.7768 13.0183 50.7768 14.9204C50.7768 16.8224 52.1622 18.1608 53.9469 18.1608Z" fill="#AFAFAF"/>
<path d="M41.6328 21.1195C38.0635 21.1195 35.4336 18.4191 35.4336 14.9204C35.4336 11.4216 38.0635 8.72119 41.6328 8.72119C43.934 8.72119 45.9299 9.94224 46.8927 11.7503L44.2862 13.2766C43.8166 12.3139 42.8068 11.7034 41.6093 11.7034C39.8012 11.7034 38.4627 13.0418 38.4627 14.9204C38.4627 16.7754 39.8012 18.1139 41.6093 18.1139C42.8303 18.1139 43.84 17.5268 44.3097 16.5641L46.9396 18.0669C45.9299 19.8985 43.934 21.1195 41.6328 21.1195Z" fill="#AFAFAF"/>
<path fill-rule="evenodd" clip-rule="evenodd" d="M9.58251 2.2168C8.56936 2.2168 7.74805 3.03811 7.74805 4.05126V9.78098H1.91265C0.899502 9.78098 0.078186 10.6023 0.078186 11.6154V25.141C0.078186 26.1541 0.899501 26.9754 1.91265 26.9754H15.2775C16.2906 26.9754 17.1119 26.1541 17.1119 25.141V19.4112H22.9473C23.9605 19.4112 24.7818 18.5899 24.7818 17.5768V4.05126C24.7818 3.03811 23.9605 2.2168 22.9473 2.2168H9.58251ZM17.1119 19.4112V11.6154C17.1119 10.6023 16.2906 9.78098 15.2775 9.78098H7.74805V17.5768C7.74805 18.5899 8.56936 19.4112 9.5825 19.4112H17.1119Z" fill="#AFAFAF"/>
</svg>
