<svg width="136" height="27" viewBox="0 0 136 27" fill="none" xmlns="http://www.w3.org/2000/svg">
<path d="M126.472 14.3814H131.367C131.322 13.2914 130.61 12.2236 128.919 12.2236C127.385 12.2236 126.539 13.3804 126.472 14.3814ZM131.656 17.2289L134.125 17.963C133.569 19.8539 131.834 21.4334 129.142 21.4334C126.139 21.4334 123.492 19.2755 123.492 15.5827C123.492 12.0901 126.072 9.82104 128.875 9.82104C132.256 9.82104 134.281 11.9789 134.281 15.4937C134.281 15.9164 134.236 16.3613 134.236 16.4058H126.406C126.472 17.8518 127.696 18.8973 129.164 18.8973C130.543 18.8973 131.3 18.2077 131.656 17.2289Z" fill="#AFAFAF"/>
<path d="M113.615 18.052L116.151 17.4959C116.218 18.3634 116.863 19.1643 118.153 19.1643C119.132 19.1643 119.599 18.6526 119.599 18.0742C119.599 17.5848 119.265 17.1844 118.42 17.0064L116.974 16.6728C114.861 16.2056 113.904 14.9376 113.904 13.4026C113.904 11.445 115.639 9.82104 117.997 9.82104C121.112 9.82104 122.157 11.8009 122.291 12.98L119.821 13.5361C119.732 12.891 119.265 12.0679 118.019 12.0679C117.241 12.0679 116.618 12.535 116.618 13.1579C116.618 13.6918 117.018 14.0255 117.619 14.1367L119.176 14.4704C121.334 14.9153 122.424 16.2278 122.424 17.8295C122.424 19.6092 121.045 21.4334 118.175 21.4334C114.883 21.4334 113.748 19.2978 113.615 18.052Z" fill="#AFAFAF"/>
<path d="M111.826 21.0997H108.868V10.1548H111.826V21.0997ZM108.512 6.57321C108.512 5.5499 109.335 4.72681 110.336 4.72681C111.359 4.72681 112.16 5.5499 112.16 6.57321C112.16 7.55203 111.359 8.37512 110.336 8.37512C109.335 8.37512 108.512 7.55203 108.512 6.57321Z" fill="#AFAFAF"/>
<path d="M107.231 10.1102V13.0911C106.898 13.0244 106.609 13.0021 106.342 13.0021C104.829 13.0021 103.516 13.7362 103.516 16.0943V21.0996H100.558V10.1547H103.427V11.7786C104.095 10.3326 105.607 10.0657 106.542 10.0657C106.787 10.0657 107.009 10.0879 107.231 10.1102Z" fill="#AFAFAF"/>
<path d="M90.34 25.3263H87.3813V10.1546H90.2511V11.4894C90.7405 10.644 91.964 9.90991 93.6102 9.90991C96.8136 9.90991 98.66 12.357 98.66 15.6048C98.66 18.9195 96.5911 21.3665 93.499 21.3665C91.9862 21.3665 90.8739 20.7659 90.34 20.0318V25.3263ZM95.7458 15.6271C95.7458 13.6917 94.5445 12.5572 93.0318 12.5572C91.5191 12.5572 90.2956 13.6917 90.2956 15.6271C90.2956 17.5625 91.5191 18.7193 93.0318 18.7193C94.5445 18.7193 95.7458 17.5847 95.7458 15.6271Z" fill="#AFAFAF"/>
<path d="M85.745 10.1102V13.0911C85.4114 13.0244 85.1222 13.0021 84.8552 13.0021C83.3425 13.0021 82.03 13.7362 82.03 16.0943V21.0996H79.0713V10.1547H81.941V11.7786C82.6084 10.3326 84.1211 10.0657 85.0554 10.0657C85.3001 10.0657 85.5226 10.0879 85.745 10.1102Z" fill="#AFAFAF"/>
<path d="M69.378 14.3814H74.2721C74.2276 13.2914 73.5158 12.2236 71.8251 12.2236C70.2901 12.2236 69.4448 13.3804 69.378 14.3814ZM74.5613 17.2289L77.0306 17.963C76.4745 19.8539 74.7393 21.4334 72.0475 21.4334C69.0443 21.4334 66.3971 19.2755 66.3971 15.5827C66.3971 12.0901 68.9776 9.82104 71.7806 9.82104C75.162 9.82104 77.1863 11.9789 77.1863 15.4937C77.1863 15.9164 77.1418 16.3613 77.1418 16.4058H69.3113C69.378 17.8518 70.6016 18.8973 72.0698 18.8973C73.449 18.8973 74.2054 18.2077 74.5613 17.2289Z" fill="#AFAFAF"/>
<path d="M63.0582 6.88452V10.1547H65.2605V12.7797H63.0582V17.3623C63.0582 18.3189 63.5031 18.6303 64.3484 18.6303C64.7044 18.6303 65.1048 18.5858 65.2605 18.5413V20.9884C64.9936 21.0996 64.4597 21.2553 63.5921 21.2553C61.4565 21.2553 60.1217 19.9873 60.1217 17.874V12.7797H58.1418V10.1547H58.698C59.8548 10.1547 60.3887 9.3983 60.3887 8.41948V6.88452H63.0582Z" fill="#AFAFAF"/>
<path d="M49.8222 14.8041V21.0996H46.8635V10.1547H49.7332V11.5117C50.4006 10.3771 51.7131 9.86548 52.8921 9.86548C55.6061 9.86548 56.8519 11.8009 56.8519 14.2034V21.0996H53.8932V14.7151C53.8932 13.4915 53.2926 12.535 51.8688 12.535C50.5786 12.535 49.8222 13.536 49.8222 14.8041Z" fill="#AFAFAF"/>
<path d="M37.1702 14.3814H42.0643C42.0198 13.2914 41.308 12.2236 39.6173 12.2236C38.0823 12.2236 37.237 13.3804 37.1702 14.3814ZM42.3535 17.2289L44.8228 17.963C44.2667 19.8539 42.5315 21.4334 39.8397 21.4334C36.8366 21.4334 34.1893 19.2755 34.1893 15.5827C34.1893 12.0901 36.7698 9.82104 39.5728 9.82104C42.9542 9.82104 44.9785 11.9789 44.9785 15.4937C44.9785 15.9164 44.934 16.3613 44.934 16.4058H37.1035C37.1702 17.8518 38.3938 18.8973 39.862 18.8973C41.2412 18.8973 41.9976 18.2077 42.3535 17.2289Z" fill="#AFAFAF"/>
<g clip-path="url(#clip0_5580_16716)">
<path fill-rule="evenodd" clip-rule="evenodd" d="M1.39156 18.7512C1.39156 19.3598 2.00792 19.7746 2.57167 19.5454L10.1046 16.4832C10.4277 16.3519 10.6391 16.0379 10.6391 15.6891L10.6391 12.2309C10.6391 11.8821 10.8504 11.5681 11.1735 11.4368L18.7335 8.36357C19.0567 8.23222 19.268 7.9182 19.268 7.5694L19.268 3.51525C19.268 3.04179 18.8842 2.65797 18.4107 2.65797L10.8778 2.65797C10.4043 2.65797 10.0205 3.04179 10.0205 3.51525L10.0205 9.92035C10.0205 10.3938 9.63667 10.7776 9.16321 10.7776L2.24884 10.7776C1.77538 10.7776 1.39156 11.1614 1.39156 11.6349L1.39156 18.7512Z" fill="#AFAFAF"/>
<path fill-rule="evenodd" clip-rule="evenodd" d="M25.809 8.52489C25.809 7.91635 25.1926 7.50156 24.6289 7.73072L17.0959 10.7929C16.7728 10.9242 16.5615 11.2383 16.5615 11.5871V15.045C16.5615 15.3938 16.3502 15.7079 16.0271 15.8392L8.467 18.9124C8.14388 19.0438 7.93256 19.3578 7.93256 19.7066V23.7607C7.93256 24.2342 8.31637 24.618 8.78983 24.618H16.3228C16.7962 24.618 17.18 24.2342 17.18 23.7607V17.3558C17.18 16.8823 17.5639 16.4985 18.0373 16.4985H24.9517C25.4252 16.4985 25.809 16.1147 25.809 15.6412V8.52489Z" fill="#AFAFAF"/>
</g>
<defs>
<clipPath id="clip0_5580_16716">
<rect width="25.3355" height="25.3355" fill="white" transform="translate(0.932434 1.65796)"/>
</clipPath>
</defs>
</svg>
