<svg width="123" height="27" viewBox="0 0 123 27" fill="none" xmlns="http://www.w3.org/2000/svg">
<path d="M115.335 8.45044C118.56 8.45044 120.674 10.6973 120.674 13.7005C120.674 14.2121 120.585 14.6793 120.496 15.1019H112.532C112.71 16.8816 114.2 17.8159 115.869 17.8159C117.181 17.8159 118.16 17.2598 118.85 16.5479L120.451 18.4611C119.05 19.7958 117.604 20.3297 115.735 20.3297C111.998 20.3297 109.529 17.7269 109.529 14.4123C109.529 11.0977 111.953 8.45044 115.335 8.45044ZM115.312 10.8752C113.889 10.8752 112.776 11.7206 112.532 13.1443H117.849V13.1221C117.737 11.7206 116.669 10.8752 115.312 10.8752Z" fill="#AFAFAF"/>
<path d="M101.048 8.71717H102.739V5.625H105.542V8.71717H108.234V11.0307H105.542V16.0805C105.542 17.1706 106.076 17.7267 107.121 17.7267C107.455 17.7267 108.011 17.6822 108.523 17.3486V19.8846C108.011 20.1515 107.322 20.3295 106.365 20.3295C104.051 20.3295 102.65 18.9725 102.65 16.5032V11.0307H101.048V8.71717Z" fill="#AFAFAF"/>
<path d="M88.2766 8.71729H91.1685V15.2576C91.1685 16.8815 92.1251 17.7491 93.4598 17.7491C95.2617 17.7491 96.0626 16.1029 96.0626 14.5679V8.71729H98.9545V20.0627H96.1738V18.5054C95.462 19.6845 94.3497 20.3296 92.6812 20.3296C90.0117 20.3296 88.2766 18.5944 88.2766 15.5912V8.71729Z" fill="#AFAFAF"/>
<path d="M79.0414 8.71717H80.7321V5.625H83.535V8.71717H86.2268V11.0307H83.535V16.0805C83.535 17.1706 84.0689 17.7267 85.1145 17.7267C85.4482 17.7267 86.0043 17.6822 86.516 17.3486V19.8846C86.0043 20.1515 85.3147 20.3295 84.3581 20.3295C82.0446 20.3295 80.6431 18.9725 80.6431 16.5032V11.0307H79.0414V8.71717Z" fill="#AFAFAF"/>
<path d="M74.0512 20.0627V8.71735H76.9431V20.0627H74.0512ZM75.4749 3.80103C76.387 3.80103 77.1433 4.4684 77.1433 5.42497C77.1433 6.38154 76.387 7.07116 75.4749 7.07116C74.5183 7.07116 73.8065 6.38154 73.8065 5.42497C73.8065 4.4684 74.5183 3.80103 75.4749 3.80103Z" fill="#AFAFAF"/>
<path d="M64.5511 8.71717H66.2418V5.625H69.0448V8.71717H71.7365V11.0307H69.0448V16.0805C69.0448 17.1706 69.5787 17.7267 70.6243 17.7267C70.9579 17.7267 71.5141 17.6822 72.0257 17.3486V19.8846C71.5141 20.1515 70.8245 20.3295 69.8679 20.3295C67.5543 20.3295 66.1528 18.9725 66.1528 16.5032V11.0307H64.5511V8.71717Z" fill="#AFAFAF"/>
<path d="M58.9073 20.3297C56.8607 20.3297 55.1032 19.3731 54.2357 17.7714L56.1933 16.3255C56.8162 17.3043 57.6838 17.9939 58.9073 17.9939C59.9751 17.9939 60.6202 17.6157 60.6202 17.0151C60.6202 16.3032 60.0196 16.014 58.1732 15.3911C55.8596 14.6125 54.6138 13.7005 54.6138 11.8318C54.6138 9.87417 56.527 8.45044 58.974 8.45044C60.8427 8.45044 62.3776 9.34027 63.1117 10.6973L61.1764 12.0988C60.7092 11.3202 59.9973 10.764 58.9295 10.764C58.0174 10.764 57.3278 11.1867 57.3278 11.8096C57.3278 12.4102 57.9285 12.7216 59.6859 13.3445C61.8437 14.1231 63.3342 14.8795 63.3342 16.9483C63.3342 18.8615 61.5323 20.3297 58.9073 20.3297Z" fill="#AFAFAF"/>
<path d="M41.4862 8.71739H44.2669V10.2746C44.9788 9.09557 46.0911 8.45044 47.7595 8.45044C50.429 8.45044 52.1642 10.1856 52.1642 13.1888V20.0628H49.2722V13.5225C49.2722 11.8985 48.3157 11.031 46.9809 11.031C45.179 11.031 44.3782 12.6549 44.3782 14.2121V20.0628H41.4862V8.71739Z" fill="#AFAFAF"/>
<path d="M35.2948 20.0627V8.71735H38.1867V20.0627H35.2948ZM36.7185 3.80103C37.6306 3.80103 38.3869 4.4684 38.3869 5.42497C38.3869 6.38154 37.6306 7.07116 36.7185 7.07116C35.7619 7.07116 35.05 6.38154 35.05 5.42497C35.05 4.4684 35.7619 3.80103 36.7185 3.80103Z" fill="#AFAFAF"/>
<path fill-rule="evenodd" clip-rule="evenodd" d="M7.80587 1.73931C3.67707 3.74024 0.830078 7.97131 0.830078 12.8673C0.830078 19.6929 6.3633 25.2261 13.1889 25.2261C18.0849 25.2261 22.316 22.3791 24.3169 18.2503H13.2001L13.1889 18.2504C10.2344 18.2504 7.83576 15.87 7.80618 12.9225H7.80587V1.73931ZM25.3769 14.9264C25.4892 14.2568 25.5477 13.5689 25.5477 12.8673C25.5477 6.04177 20.0144 0.508545 13.1889 0.508545C12.4873 0.508545 11.7994 0.567 11.1298 0.679305V7.89224C11.7641 7.62942 12.4595 7.48437 13.1889 7.48437C16.1618 7.48437 18.5719 9.89442 18.5719 12.8674C18.5719 13.5967 18.4268 14.2921 18.164 14.9264H25.3769Z" fill="#AFAFAF"/>
</svg>
