<svg width="168" height="27" viewBox="0 0 168 27" fill="none" xmlns="http://www.w3.org/2000/svg">
<path d="M158.153 9.84328C159.102 8.70133 160.273 8.12294 161.667 8.1081C162.424 8.09327 163.091 8.21933 163.67 8.48628C164.248 8.7384 164.715 9.08692 165.071 9.53184C165.501 10.0509 165.798 10.659 165.961 11.356C166.124 12.0382 166.206 12.802 166.206 13.6473V20.0764H163.047V13.892C163.047 13.4768 163.002 13.0838 162.913 12.713C162.839 12.3274 162.706 12.0011 162.513 11.7342C162.32 11.4524 162.06 11.2448 161.734 11.1113C161.423 10.9778 161.067 10.9111 160.666 10.9111C160.162 10.9259 159.732 11.0371 159.376 11.2448C159.035 11.4524 158.775 11.7193 158.597 12.0456C158.42 12.3571 158.293 12.713 158.219 13.1134C158.16 13.499 158.13 13.892 158.13 14.2924V20.0764H154.994V8.35281H157.997L158.153 9.84328Z" fill="#AFAFAF"/>
<path d="M147.04 20.2544C145.142 20.2544 143.681 19.7205 142.658 18.6527C141.634 17.57 141.123 16.0722 141.123 14.159C141.123 13.2395 141.256 12.409 141.523 11.6675C141.805 10.9111 142.19 10.266 142.68 9.7321C143.184 9.1982 143.799 8.79778 144.526 8.53083C145.268 8.24904 146.106 8.10815 147.04 8.10815C147.959 8.10815 148.783 8.24904 149.509 8.53083C150.251 8.79778 150.874 9.1982 151.378 9.7321C151.897 10.266 152.29 10.9111 152.557 11.6675C152.839 12.409 152.98 13.2395 152.98 14.159C152.98 16.087 152.461 17.5849 151.422 18.6527C150.399 19.7205 148.938 20.2544 147.04 20.2544ZM147.04 10.9111C146.076 10.9111 145.364 11.2226 144.904 11.8455C144.445 12.4683 144.215 13.2469 144.215 14.1813C144.215 15.1304 144.445 15.9164 144.904 16.5393C145.364 17.1622 146.076 17.4736 147.04 17.4736C148.004 17.4736 148.708 17.1622 149.153 16.5393C149.598 15.9164 149.821 15.1304 149.821 14.1813C149.821 13.2469 149.598 12.4683 149.153 11.8455C148.708 11.2226 148.004 10.9111 147.04 10.9111Z" fill="#AFAFAF"/>
<path d="M137.351 2.90259C137.929 2.90259 138.396 3.07314 138.752 3.41424C139.108 3.75534 139.286 4.20768 139.286 4.77124C139.286 5.36446 139.108 5.83162 138.752 6.17272C138.396 6.499 137.929 6.66213 137.351 6.66213C136.787 6.66213 136.32 6.499 135.949 6.17272C135.593 5.83162 135.415 5.36446 135.415 4.77124C135.415 4.20768 135.593 3.75534 135.949 3.41424C136.32 3.07314 136.787 2.90259 137.351 2.90259ZM138.93 20.0764H135.793V8.35282H138.93V20.0764Z" fill="#AFAFAF"/>
<path d="M131.127 11.089V15.8274C131.127 16.8359 131.638 17.3401 132.661 17.3401H133.818V20.0763H132.35C130.793 20.1357 129.673 19.839 128.991 19.1865C128.324 18.534 127.99 17.5477 127.99 16.2278V11.089H126.21V8.35278H127.99V5.17163H131.127V8.35278H133.93V11.089H131.127Z" fill="#AFAFAF"/>
<path d="M121.689 18.6304C121.244 19.2237 120.703 19.6463 120.065 19.8984C119.427 20.1506 118.686 20.2692 117.84 20.2544C116.758 20.2247 115.853 19.9207 115.126 19.3423C114.741 19.016 114.437 18.6304 114.214 18.1855C114.007 17.7258 113.903 17.1845 113.903 16.5616C113.918 15.9239 114.059 15.3603 114.326 14.8709C114.607 14.3666 115.03 13.9514 115.594 13.6251C116.068 13.373 116.602 13.195 117.195 13.0912C117.803 12.9874 118.463 12.9355 119.175 12.9355H121.578C121.622 12.2088 121.452 11.6675 121.066 11.3116C120.695 10.9408 120.169 10.748 119.487 10.7332C119.264 10.7332 119.034 10.748 118.797 10.7777C118.56 10.8073 118.337 10.8666 118.13 10.9556C117.937 11.0446 117.766 11.1707 117.618 11.3338C117.484 11.4821 117.395 11.6675 117.351 11.8899H114.125C114.199 11.1781 114.392 10.5849 114.704 10.1103C115.03 9.62087 115.438 9.22786 115.927 8.93125C116.417 8.63464 116.958 8.42701 117.551 8.30837C118.159 8.17489 118.782 8.10815 119.42 8.10815C119.776 8.10815 120.139 8.1304 120.51 8.17489C120.881 8.20455 121.244 8.27871 121.6 8.39735C121.956 8.50116 122.29 8.64947 122.601 8.84227C122.927 9.02023 123.231 9.25752 123.513 9.55413C124.017 10.1325 124.329 10.7999 124.447 11.5563C124.581 12.2978 124.64 13.0245 124.625 13.7363V20.0764H121.756L121.689 18.6304ZM121.578 14.8931H119.286C119.064 14.8931 118.812 14.9154 118.53 14.9599C118.248 15.0044 118.003 15.0859 117.796 15.2046C117.588 15.3232 117.41 15.4789 117.262 15.6717C117.128 15.8645 117.062 16.1018 117.062 16.3836C117.062 16.6209 117.106 16.8285 117.195 17.0065C117.299 17.1845 117.425 17.3328 117.573 17.4514C117.737 17.57 117.929 17.6664 118.152 17.7406C118.374 17.7999 118.597 17.8296 118.819 17.8296C119.249 17.8444 119.65 17.7703 120.02 17.6071C120.406 17.444 120.74 17.2141 121.021 16.9175C121.199 16.6802 121.333 16.4133 121.422 16.1167C121.526 15.8052 121.578 15.3974 121.578 14.8931Z" fill="#AFAFAF"/>
<path d="M112.306 10.6219L106.611 17.3401H112.306V20.0763H102.518V17.785L108.169 11.0668H102.518V8.35278H112.306V10.6219Z" fill="#AFAFAF"/>
<path d="M98.7463 2.90259C99.3247 2.90259 99.7919 3.07314 100.148 3.41424C100.504 3.75534 100.682 4.20768 100.682 4.77124C100.682 5.36446 100.504 5.83162 100.148 6.17272C99.7919 6.499 99.3247 6.66213 98.7463 6.66213C98.1827 6.66213 97.7156 6.499 97.3448 6.17272C96.9889 5.83162 96.8109 5.36446 96.8109 4.77124C96.8109 4.20768 96.9889 3.75534 97.3448 3.41424C97.7156 3.07314 98.1827 2.90259 98.7463 2.90259ZM100.326 20.0764H97.1891V8.35282H100.326V20.0764Z" fill="#AFAFAF"/>
<path d="M86.5488 9.84328C87.498 8.70133 88.6696 8.12294 90.0636 8.1081C90.82 8.09327 91.4874 8.21933 92.0658 8.48628C92.6442 8.7384 93.1113 9.08692 93.4673 9.53184C93.8973 10.0509 94.194 10.659 94.3571 11.356C94.5202 12.0382 94.6018 12.802 94.6018 13.6473V20.0764H91.4429V13.892C91.4429 13.4768 91.3984 13.0838 91.3094 12.713C91.2353 12.3274 91.1018 12.0011 90.909 11.7342C90.7162 11.4524 90.4567 11.2448 90.1304 11.1113C89.8189 10.9778 89.463 10.9111 89.0626 10.9111C88.5583 10.9259 88.1283 11.0371 87.7723 11.2448C87.4312 11.4524 87.1717 11.7193 86.9937 12.0456C86.8158 12.3571 86.6897 12.713 86.6155 13.1134C86.5562 13.499 86.5266 13.892 86.5266 14.2924V20.0764H83.3899V8.35281H86.3931L86.5488 9.84328Z" fill="#AFAFAF"/>
<path d="M78.001 18.6304C77.5561 19.2237 77.0148 19.6463 76.3771 19.8984C75.7393 20.1506 74.9978 20.2692 74.1525 20.2544C73.0698 20.2247 72.1652 19.9207 71.4385 19.3423C71.0529 19.016 70.7489 18.6304 70.5264 18.1855C70.3188 17.7258 70.215 17.1845 70.215 16.5616C70.2298 15.9239 70.3707 15.3603 70.6376 14.8709C70.9194 14.3666 71.3421 13.9514 71.9056 13.6251C72.3802 13.373 72.9141 13.195 73.5074 13.0912C74.1154 12.9874 74.7754 12.9355 75.4872 12.9355H77.8898C77.9343 12.2088 77.7637 11.6675 77.3781 11.3116C77.0074 10.9408 76.4809 10.748 75.7987 10.7332C75.5762 10.7332 75.3463 10.748 75.109 10.7777C74.8718 10.8073 74.6493 10.8666 74.4417 10.9556C74.2489 11.0446 74.0783 11.1707 73.93 11.3338C73.7965 11.4821 73.7076 11.6675 73.6631 11.8899H70.4374C70.5116 11.1781 70.7044 10.5849 71.0158 10.1103C71.3421 9.62087 71.7499 9.22786 72.2393 8.93125C72.7287 8.63464 73.2701 8.42701 73.8633 8.30837C74.4713 8.17489 75.0942 8.10815 75.7319 8.10815C76.0879 8.10815 76.4512 8.1304 76.822 8.17489C77.1927 8.20455 77.5561 8.27871 77.912 8.39735C78.268 8.50116 78.6016 8.64947 78.9131 8.84227C79.2394 9.02023 79.5434 9.25752 79.8252 9.55413C80.3294 10.1325 80.6408 10.7999 80.7595 11.5563C80.893 12.2978 80.9523 13.0245 80.9375 13.7363V20.0764H78.0677L78.001 18.6304ZM77.8898 14.8931H75.5985C75.376 14.8931 75.1239 14.9154 74.8421 14.9599C74.5603 15.0044 74.3156 15.0859 74.108 15.2046C73.9004 15.3232 73.7224 15.4789 73.5741 15.6717C73.4406 15.8645 73.3739 16.1018 73.3739 16.3836C73.3739 16.6209 73.4184 16.8285 73.5074 17.0065C73.6112 17.1845 73.7372 17.3328 73.8855 17.4514C74.0487 17.57 74.2415 17.6664 74.4639 17.7406C74.6864 17.7999 74.9088 17.8296 75.1313 17.8296C75.5614 17.8444 75.9618 17.7703 76.3326 17.6071C76.7182 17.444 77.0518 17.2141 77.3336 16.9175C77.5116 16.6802 77.6451 16.4133 77.7341 16.1167C77.8379 15.8052 77.8898 15.3974 77.8898 14.8931Z" fill="#AFAFAF"/>
<path d="M64.995 18.8749C64.5501 19.3792 64.0162 19.7351 63.3933 19.9427C62.7704 20.1504 62.0957 20.2542 61.369 20.2542C60.6423 20.2542 59.9304 20.143 59.2334 19.9205C58.5512 19.6832 57.9579 19.305 57.4537 18.786C56.8901 18.1927 56.4971 17.5105 56.2747 16.7393C56.0522 15.9682 55.941 15.1747 55.941 14.359C55.941 12.4311 56.4749 10.8887 57.5427 9.7319C58.0024 9.22767 58.5956 8.83466 59.3223 8.55288C60.0639 8.2711 60.8573 8.13762 61.7026 8.15245C62.2514 8.12279 62.8446 8.21919 63.4823 8.44165C64.12 8.66411 64.6688 9.03487 65.1285 9.55394L65.4622 8.35266H68.1762V19.3421C68.1762 19.8167 68.1465 20.2838 68.0872 20.7436C68.0427 21.2182 67.9611 21.6705 67.8425 22.1006C67.7239 22.5455 67.5459 22.9682 67.3086 23.3686C67.0416 23.858 66.7154 24.2733 66.3298 24.6144C65.959 24.9555 65.5438 25.2372 65.084 25.4597C64.6243 25.697 64.1349 25.8675 63.6158 25.9714C63.0967 26.0752 62.5702 26.1271 62.0363 26.1271C61.3541 26.1271 60.7016 26.0455 60.0787 25.8824C59.4558 25.7341 58.8848 25.482 58.3658 25.126C57.8615 24.7849 57.4389 24.3474 57.0978 23.8135C56.7715 23.2796 56.5564 22.6419 56.4526 21.9004H59.7895C59.8488 22.2563 60.0861 22.5752 60.5014 22.8569C60.9166 23.1387 61.4209 23.2796 62.0141 23.2796C62.6518 23.2796 63.1709 23.1536 63.5713 22.9014C63.9866 22.6493 64.298 22.3156 64.5056 21.9004C64.7133 21.4851 64.8467 21.0105 64.906 20.4766C64.9654 19.9427 64.995 19.4088 64.995 18.8749ZM62.0808 17.4735C62.5702 17.4735 63.0003 17.3845 63.3711 17.2065C63.7567 17.0285 64.0681 16.7912 64.3054 16.4946C64.5427 16.1832 64.7207 15.8273 64.8393 15.4268C64.958 15.0116 65.0173 14.5741 65.0173 14.1143C65.0173 13.1948 64.7577 12.4385 64.2387 11.8453C63.7344 11.2372 63.0077 10.9258 62.0586 10.9109C61.5692 10.9109 61.1317 10.9999 60.7461 11.1779C60.3753 11.3559 60.0639 11.5931 59.8118 11.8897C59.5745 12.1864 59.3965 12.5349 59.2779 12.9353C59.1592 13.3357 59.0999 13.7658 59.0999 14.2256C59.0999 14.715 59.1592 15.1599 59.2779 15.5603C59.4113 15.9459 59.6041 16.287 59.8562 16.5836C60.1084 16.8654 60.4198 17.0879 60.7906 17.251C61.1613 17.3993 61.5914 17.4735 62.0808 17.4735Z" fill="#AFAFAF"/>
<path d="M50.5276 9.82105C51.0021 9.25749 51.5064 8.83482 52.0403 8.55304C52.589 8.27126 53.2416 8.13037 53.9979 8.13037C54.1907 8.13037 54.3761 8.13779 54.5541 8.15262C54.732 8.16745 54.8952 8.18969 55.0435 8.21935V11.1113C54.7024 11.1113 54.3538 11.1187 53.9979 11.1336C53.6568 11.1336 53.3305 11.1632 53.0191 11.2225C52.7077 11.2819 52.4036 11.3783 52.107 11.5117C51.8252 11.6304 51.5731 11.8083 51.3507 12.0456C51.0096 12.4312 50.7945 12.8465 50.7055 13.2914C50.6314 13.7363 50.5943 14.2406 50.5943 14.8041V20.0764H47.4576V8.35283H50.3496L50.5276 9.82105Z" fill="#AFAFAF"/>
<path d="M39.5039 20.2544C37.6056 20.2544 36.1448 19.7205 35.1215 18.6527C34.0982 17.57 33.5865 16.0722 33.5865 14.159C33.5865 13.2395 33.72 12.409 33.987 11.6675C34.2688 10.9111 34.6543 10.266 35.1438 9.7321C35.648 9.1982 36.2635 8.79778 36.9902 8.53083C37.7317 8.24904 38.5696 8.10815 39.5039 8.10815C40.4234 8.10815 41.2465 8.24904 41.9732 8.53083C42.7148 8.79778 43.3376 9.1982 43.8419 9.7321C44.3609 10.266 44.754 10.9111 45.0209 11.6675C45.3027 12.409 45.4436 13.2395 45.4436 14.159C45.4436 16.087 44.9245 17.5849 43.8864 18.6527C42.8631 19.7205 41.4022 20.2544 39.5039 20.2544ZM39.5039 10.9111C38.54 10.9111 37.8281 11.2226 37.3683 11.8455C36.9086 12.4683 36.6787 13.2469 36.6787 14.1813C36.6787 15.1304 36.9086 15.9164 37.3683 16.5393C37.8281 17.1622 38.54 17.4736 39.5039 17.4736C40.4679 17.4736 41.1724 17.1622 41.6173 16.5393C42.0622 15.9164 42.2847 15.1304 42.2847 14.1813C42.2847 13.2469 42.0622 12.4683 41.6173 11.8455C41.1724 11.2226 40.4679 10.9111 39.5039 10.9111Z" fill="#AFAFAF"/>
<path d="M12.1438 2.45326C12.1438 1.53901 11.3989 0.785609 10.4941 0.917118C9.55545 1.05356 8.63519 1.30624 7.75491 1.67086C6.36345 2.24722 5.09914 3.092 4.03417 4.15697C2.9692 5.22195 2.12442 6.48625 1.54806 7.87771C0.971697 9.26916 0.675048 10.7605 0.675048 12.2666C0.675048 13.7727 0.971696 15.2641 1.54806 16.6555C2.12441 18.047 2.9692 19.3113 4.03417 20.3763C5.09914 21.4412 6.36345 22.286 7.75491 22.8624C9.14636 23.4387 10.6377 23.7354 12.1438 23.7354L12.1438 18.2304C11.3606 18.2304 10.5851 18.0761 9.86158 17.7764C9.13802 17.4767 8.48058 17.0374 7.9268 16.4836C7.37301 15.9298 6.93373 15.2724 6.63402 14.5488C6.33431 13.8253 6.18005 13.0498 6.18005 12.2666C6.18005 11.4834 6.33431 10.7079 6.63402 9.98438C6.93373 9.26083 7.37301 8.60339 7.9268 8.0496C8.48058 7.49582 9.13802 7.05653 9.86158 6.75682C10.0735 6.66905 10.2899 6.59374 10.5096 6.53114C11.3888 6.28061 12.1438 5.5617 12.1438 4.64745L12.1438 2.45326Z" fill="#AFAFAF"/>
<path d="M21.8028 12.2668C22.717 12.2668 23.4704 13.0118 23.3389 13.9165C23.2025 14.8552 22.9498 15.7755 22.5852 16.6558C22.0088 18.0472 21.164 19.3115 20.0991 20.3765C19.0341 21.4415 17.7698 22.2862 16.3783 22.8626C14.9869 23.439 13.4955 23.7356 11.9894 23.7356L11.9894 18.2306C12.7726 18.2306 13.5481 18.0763 14.2717 17.7766C14.9952 17.4769 15.6527 17.0376 16.2064 16.4839C16.7602 15.9301 17.1995 15.2726 17.4992 14.5491C17.587 14.3372 17.6623 14.1208 17.7249 13.9011C17.9754 13.0218 18.6943 12.2668 19.6086 12.2668L21.8028 12.2668Z" fill="#AFAFAF"/>
<path d="M23.7371 0.802979C24.6514 0.802979 25.4048 1.54791 25.2733 2.45266C25.1368 3.39134 24.8841 4.3116 24.5195 5.19188C23.9432 6.58334 23.0984 7.84765 22.0334 8.91262C20.9684 9.97759 19.7041 10.8224 18.3127 11.3987C17.4324 11.7634 16.5121 12.016 15.5734 12.1525C14.6687 12.284 13.9238 11.5306 13.9238 10.6163L13.9238 8.42215C13.9238 7.50789 14.6787 6.78899 15.558 6.53845C15.7777 6.47585 15.9941 6.40055 16.206 6.31277C16.9295 6.01307 17.587 5.57378 18.1408 5.01999C18.6946 4.46621 19.1338 3.80877 19.4335 3.08521C19.5213 2.8733 19.5966 2.65693 19.6592 2.43722C19.9098 1.55796 20.6287 0.80298 21.5429 0.80298L23.7371 0.802979Z" fill="#AFAFAF"/>
</svg>
