<svg width="111" height="26" viewBox="0 0 111 26" fill="none" xmlns="http://www.w3.org/2000/svg">
<path d="M103.804 7.84058C106.785 7.84058 109.232 10.3988 109.232 13.7135C109.232 17.0281 106.785 19.5864 103.804 19.5864C102.18 19.5864 101.001 18.9857 100.2 17.9624V23.7241H97.3302V8.15202H100.2V9.46452C101.001 8.44121 102.18 7.84058 103.804 7.84058ZM103.27 16.8501C105.05 16.8501 106.362 15.5821 106.362 13.7135C106.362 11.8448 105.05 10.5768 103.27 10.5768C101.512 10.5768 100.2 11.8448 100.2 13.7135C100.2 15.5821 101.512 16.8501 103.27 16.8501Z" fill="#AFAFAF"/>
<path d="M91.8322 8.1521H94.7019V19.275H91.8322V18.0292C91.1648 19.0303 90.008 19.5865 88.5176 19.5865C86.1595 19.5865 84.3131 17.9403 84.3131 14.9816V8.1521H87.1828V14.6256C87.1828 16.1384 88.0949 16.917 89.3852 16.917C90.7866 16.917 91.8322 16.0939 91.8322 14.1585V8.1521Z" fill="#AFAFAF"/>
<path d="M82.294 10.9105H79.7802V15.5376C79.7802 16.7389 80.6478 16.7612 82.294 16.6722V19.2749C78.2675 19.7198 76.9105 18.5408 76.9105 15.5376V10.9105H74.9751V8.15201H76.9105V5.90519L79.7802 5.0376V8.15201H82.294V10.9105Z" fill="#AFAFAF"/>
<path d="M70.5678 10.0653C71.1462 8.55257 72.5477 7.92969 73.9492 7.92969V11.1331C72.4587 10.9551 70.5678 11.6225 70.5678 13.9583V19.2751H67.6981V8.15215H70.5678V10.0653Z" fill="#AFAFAF"/>
<path d="M62.2261 8.15202H65.0959V19.2749H62.2261V17.9624C61.4253 18.9635 60.224 19.5864 58.6001 19.5864C55.6414 19.5864 53.1943 17.0281 53.1943 13.7135C53.1943 10.3988 55.6414 7.84058 58.6001 7.84058C60.224 7.84058 61.4253 8.46346 62.2261 9.46452V8.15202ZM59.134 16.8501C60.9136 16.8501 62.2261 15.5821 62.2261 13.7135C62.2261 11.8448 60.9136 10.5768 59.134 10.5768C57.3766 10.5768 56.064 11.8448 56.064 13.7135C56.064 15.5821 57.3766 16.8501 59.134 16.8501Z" fill="#AFAFAF"/>
<path d="M52.097 10.9105H49.5832V15.5376C49.5832 16.7389 50.4508 16.7612 52.097 16.6722V19.2749C48.0705 19.7198 46.7135 18.5408 46.7135 15.5376V10.9105H44.7781V8.15201H46.7135V5.90519L49.5832 5.0376V8.15201H52.097V10.9105Z" fill="#AFAFAF"/>
<path d="M38.4756 11.3109C38.4756 12.9571 44.2151 11.9338 44.2151 16.027C44.2151 18.4296 42.1239 19.5864 39.7436 19.5864C37.5191 19.5864 35.8729 18.652 35.072 16.9391L37.5636 15.5376C37.875 16.4497 38.6314 16.9836 39.7436 16.9836C40.6557 16.9836 41.2786 16.6722 41.2786 16.027C41.2786 14.4031 35.5392 15.2929 35.5392 11.3777C35.5392 9.10859 37.4746 7.84058 39.7659 7.84058C41.5678 7.84058 43.125 8.66367 43.9926 10.1986L41.5456 11.5334C41.2119 10.8215 40.589 10.3988 39.7659 10.3988C39.054 10.3988 38.4756 10.7103 38.4756 11.3109Z" fill="#AFAFAF"/>
<path d="M8.54287 15.4826L3.51711 20.5599C2.81881 21.2654 1.67748 21.2604 0.985407 20.5488C0.308314 19.8526 0.317079 18.7414 1.00507 18.056L7.74322 11.3432C8.47285 10.6163 9.65254 10.6151 10.3836 11.3405L13.5715 14.5036L18.9198 9.0854H15.2844C14.3384 9.0854 13.5715 8.31852 13.5715 7.37253C13.5715 6.42654 14.3384 5.65967 15.2844 5.65967H23.0249C24.059 5.65967 24.8974 6.498 24.8974 7.53213V15.2028C24.8974 16.1874 24.0992 16.9856 23.1146 16.9856C22.13 16.9856 21.3318 16.1874 21.3318 15.2028V11.5673L15.1292 17.742C14.2634 18.6039 12.8676 18.6161 11.9868 17.7695L9.59423 15.4696C9.29909 15.1859 8.83086 15.1917 8.54287 15.4826Z" fill="#AFAFAF"/>
</svg>
